# xmcd
#
# Track frame offsets:
#	187
#	25855
#	43707
#	49427
#	75067
#
# Disc length: 1052 seconds
#
# Revision: 1
# Processed by: cddbd v1.5PL3 Copyright (c) Steve Scherf et al.
# Submitted via: CDex 1.50Beta5
#
DISCID=31041a05
DTITLE=嘉門達夫 - ネコニャンニャンニャン
DYEAR=1994
DGENRE=Pop
TTITLE0=ネコニャンニャンニャン
TTITLE1=修学旅行行進曲
TTITLE2=イエルカイナSHOW
TTITLE3=ネコニャンニャンニャン(Karaoke)
TTITLE4=予告篇 chapter9
EXTD=
EXTT0=
EXTT1=
EXTT2=
EXTT3=
EXTT4=
PLAYORDER=
